<?xml version="1.0" encoding="UTF-8"?>
<svg version="1.1" viewBox="0 0 1584 1448" width="1280" height="1280" xmlns="http://www.w3.org/2000/svg">
<path transform="translate(0)" d="m0 0h1584v1448h-1584z" fill="#fff"/>
<path transform="translate(598,381)" d="m0 0 5 2 27 15 17 10 22 13 23 13 13 8 25 14 24 14 22 13 27 15 13 8 18 10 20 12 63 36 13 8 20 11 13 8 25 14 15 9 18 10 81 47 17 10 18 10 15 9 26 15 35 20 13 8 22 12 13 8 25 14 20 12 16 9v4l-5 4-11 6-5 4-22 12-5 4-7 2-5 5-23 11-5 5-12 6-16 9-10 6-9 6-19 10-13 8-18 10-11 7-16 9-19 10-11 8-30 15-4 5-26 13-2 4-4 1-1-2h-3l-2 6-26 13-6 5-34 18-7 6-16 8-18 10-8 6-16 8-7 4-3 3-6 2-9 6-22 12-9 6-26 14-10 7-28 15-5 3h-2v2l-16 9-10 5-6 5h-5l-8 7-20 10-5 4-25 14-15 9-8 5-24 13-9 6h-1z" fill="#0F0F0F"/>
<path transform="translate(1338,823)" d="m0 0h2l-1 188-9 6-28 16-22 13-29 17-27 16-106 62-27 16-26 15-28 17-23 13-28 17-16 9-2 2-9 1h-325l5-5 19-10 22-13 28-16 15-9 23-13 22-13 23-13 24-14 19-11 23-13 17-10 24-14 10-6 11-6 26-15 17-10 26-15 23-13 17-10 19-11 18-10 48-28 26-15 23-13 17-10 28-16 72-42 28-16 26-15z" fill="#0F0F0F"/>
<path transform="translate(771,264)" d="m0 0 5 1 27 15 24 14 27 15 24 14 22 12 24 14 25 14 63 36 25 14 49 28 50 28 12 7 7 8 14 25 14 24 14 25 13 22 16 28 10 17 10 18 13 22 16 28 13 22 13 23 11 18 5 7-1 4-15-10-16-9-15-9-28-16-53-31-25-14-13-8-28-16-24-14-35-20-19-11-24-14-52-30-24-14-23-13-24-14-25-14-13-8-21-12-24-14-18-10-41-24-28-16-52-30-24-14-28-16-16-8 2-2 17-8 17-10 24-14 26-15 49-28 15-9z" fill="#0F0F0F"/>
<path transform="translate(571,405)" d="m0 0h1v817l-12-7-27-16-23-13-24-14-21-12-17-10-27-15-12-7-1-2v-110l-2-215v-108l6-12 12-20 14-24 32-56 28-48 32-56 15-26 14-24 9-16 2-5z" fill="#0F0F0F"/>
<path transform="translate(1338,1040)" d="m0 0h1v190l-1 1h-322l4-4 29-16 13-8 26-15 15-9 26-15 27-16 29-17 15-9 24-14 26-15 15-9 26-15 24-14 18-11z" fill="#0F0F0F"/>
<path transform="translate(960,155)" d="m0 0h5l14 24 11 20 14 24 10 18 14 24 16 28 10 17 30 52 14 24 15 27 11 17 1 4-11-6-23-13-17-10-27-15-24-14-27-15-21-12-26-15-23-13-18-10-28-16-23-13-28-16-22-12-10-5 4-3 16-8 21-12 17-10 28-16 24-14 26-15 16-9z" fill="#0F0F0F"/>
<path transform="translate(379,739)" d="m0 0h2v144l2 197v34l-1-2-5-2-11-7-22-13-21-12-24-14-14-8-24-14-25-14-16-10-1-3 12-20 10-18 17-28 10-18 14-24 13-23 15-26 17-29 16-28 14-24 15-26 6-9z" fill="#0F0F0F"/>
<path transform="translate(777,691)" d="m0 0 11 6 15 9 16 9 24 14 18 10 19 11 18 10 18 11 20 11 18 11 12 6v2l-18 11-14 8-5 3-8 5-26 14-15 10-20 10-11 6-6 5-11 6-19 11-7 4-22 12-6 4h-2v-218z" fill="#fff"/>
<path transform="translate(802,734)" d="m0 0 5 2 13 8 78 45 12 7 6 3-1 3-29 17-24 14-26 15-23 13-10 6h-1z" fill="#0F0F0F"/>
</svg>